{
  "accessors": [
    {
      "bufferView": 2,
      "componentType": 5126,
      "count": 762,
      "max": [
        -1.1444640159606934,
        3.855458974838257,
        -2.3825430870056152
      ],
      "min": [
        -3.243875026702881,
        2.828857898712158,
        -3.4995059967041016
      ],
      "type": "VEC3"
    },
    {
      "bufferView": 2,
      "byteOffset": 9144,
      "componentType": 5126,
      "count": 762,
      "max": [
        0.9999998807907104,
        1.0,
        0.9999993443489075
      ],
      "min": [
        -1.0,
        -0.9999999403953552,
        -1.0
      ],
      "type": "VEC3"
    },
    {
      "bufferView": 1,
      "componentType": 5126,
      "count": 762,
      "max": [
        0.9980469942092896,
        0.9316059947013855
      ],
      "min": [
        0.0019529999699443579,
        0.0019529999699443579
      ],
      "type": "VEC2"
    },
    {
      "bufferView": 0,
      "componentType": 5125,
      "count": 2724,
      "type": "SCALAR"
    },
    {
      "bufferView": 2,
      "byteOffset": 18288,
      "componentType": 5126,
      "count": 6002,
      "max": [
        -2.1103899478912354,
        4.941748142242432,
        -2.0481700897216797
      ],
      "min": [
        -2.839993953704834,
        4.104409217834473,
        -3.476963996887207
      ],
      "type": "VEC3"
    },
    {
      "bufferView": 2,
      "byteOffset": 90312,
      "componentType": 5126,
      "count": 6002,
      "max": [
        0.9999294877052307,
        0.9999940395355225,
        0.9999932050704956
      ],
      "min": [
        -0.9999148845672607,
        -0.9999662637710571,
        -0.9999932646751404
      ],
      "type": "VEC3"
    },
    {
      "bufferView": 1,
      "byteOffset": 6096,
      "componentType": 5126,
      "count": 6002,
      "max": [
        0.9980469942092896,
        0.9939420223236084
      ],
      "min": [
        0.0019529999699443579,
        0.0019529999699443579
      ],
      "type": "VEC2"
    },
    {
      "bufferView": 0,
      "byteOffset": 10896,
      "componentType": 5125,
      "count": 27234,
      "type": "SCALAR"
    },
    {
      "bufferView": 2,
      "byteOffset": 162336,
      "componentType": 5126,
      "count": 850,
      "max": [
        -1.3426140546798706,
        3.854914903640747,
        -2.134697914123535
      ],
      "min": [
        -1.455415964126587,
        3.7637569904327393,
        -2.333919048309326
      ],
      "type": "VEC3"
    },
    {
      "bufferView": 2,
      "byteOffset": 172536,
      "componentType": 5126,
      "count": 850,
      "max": [
        0.9998744130134583,
        0.9998169541358948,
        1.0
      ],
      "min": [
        -0.9997817277908325,
        -0.9997591972351074,
        -0.9999995827674866
      ],
      "type": "VEC3"
    },
    {
      "bufferView": 1,
      "byteOffset": 54112,
      "componentType": 5126,
      "count": 850,
      "max": [
        0.9980469942092896,
        0.9891520142555237
      ],
      "min": [
        0.0019529999699443579,
        0.0019529999699443579
      ],
      "type": "VEC2"
    },
    {
      "bufferView": 0,
      "byteOffset": 119832,
      "componentType": 5125,
      "count": 4668,
      "type": "SCALAR"
    },
    {
      "bufferView": 2,
      "byteOffset": 182736,
      "componentType": 5126,
      "count": 161,
      "max": [
        -1.8093700408935547,
        3.2217040061950684,
        -2.3302860260009766
      ],
      "min": [
        -1.95353102684021,
        3.034482002258301,
        -2.3918509483337402
      ],
      "type": "VEC3"
    },
    {
      "bufferView": 2,
      "byteOffset": 184668,
      "componentType": 5126,
      "count": 161,
      "max": [
        0.9948761463165283,
        0.9876328706741333,
        1.0
      ],
      "min": [
        -0.9895423054695129,
        -0.9914159774780273,
        -1.0
      ],
      "type": "VEC3"
    },
    {
      "bufferView": 1,
      "byteOffset": 60912,
      "componentType": 5126,
      "count": 161,
      "max": [
        0.9980469942092896,
        0.9342439770698547
      ],
      "min": [
        0.0019529999699443579,
        0.0019529999699443579
      ],
      "type": "VEC2"
    },
    {
      "bufferView": 0,
      "byteOffset": 138504,
      "componentType": 5125,
      "count": 540,
      "type": "SCALAR"
    },
    {
      "bufferView": 2,
      "byteOffset": 186600,
      "componentType": 5126,
      "count": 6937,
      "max": [
        -2.609884023666382,
        3.162316083908081,
        -1.8481470346450806
      ],
      "min": [
        -3.238042116165161,
        2.831123113632202,
        -2.396588087081909
      ],
      "type": "VEC3"
    },
    {
      "bufferView": 2,
      "byteOffset": 269844,
      "componentType": 5126,
      "count": 6937,
      "max": [
        0.9999995827674866,
        0.9999998807907104,
        0.9999998807907104
      ],
      "min": [
        -0.9999932646751404,
        -0.9999999403953552,
        -1.0
      ],
      "type": "VEC3"
    },
    {
      "bufferView": 1,
      "byteOffset": 62200,
      "componentType": 5126,
      "count": 6937,
      "max": [
        0.9954429864883423,
        0.9980469942092896
      ],
      "min": [
        0.0019529999699443579,
        0.0019529999699443579
      ],
      "type": "VEC2"
    },
    {
      "bufferView": 0,
      "byteOffset": 140664,
      "componentType": 5125,
      "count": 39753,
      "type": "SCALAR"
    },
    {
      "bufferView": 2,
      "byteOffset": 353088,
      "componentType": 5126,
      "count": 3330,
      "max": [
        -1.1970349550247192,
        3.576733112335205,
        -1.8050479888916016
      ],
      "min": [
        -2.608119010925293,
        3.0511720180511475,
        -2.393950939178467
      ],
      "type": "VEC3"
    },
    {
      "bufferView": 2,
      "byteOffset": 393048,
      "componentType": 5126,
      "count": 3330,
      "max": [
        1.0,
        1.0,
        1.0
      ],
      "min": [
        -1.0,
        -1.0,
        -1.0
      ],
      "type": "VEC3"
    },
    {
      "bufferView": 1,
      "byteOffset": 117696,
      "componentType": 5126,
      "count": 3330,
      "max": [
        0.9916250109672546,
        0.9980469942092896
      ],
      "min": [
        0.0019529999699443579,
        0.0019529999699443579
      ],
      "type": "VEC2"
    },
    {
      "bufferView": 0,
      "byteOffset": 299676,
      "componentType": 5125,
      "count": 15888,
      "type": "SCALAR"
    },
    {
      "bufferView": 2,
      "byteOffset": 433008,
      "componentType": 5126,
      "count": 14173,
      "max": [
        -1.7797960042953491,
        3.504211902618408,
        -2.301568031311035
      ],
      "min": [
        -2.472579002380371,
        3.2315781116485596,
        -2.3855879306793213
      ],
      "type": "VEC3"
    },
    {
      "bufferView": 2,
      "byteOffset": 603084,
      "componentType": 5126,
      "count": 14173,
      "max": [
        0.9950165748596191,
        0.9950204491615295,
        0.9996179342269897
      ],
      "min": [
        -0.9983502626419067,
        -0.9950360655784607,
        -0.9971887469291687
      ],
      "type": "VEC3"
    },
    {
      "bufferView": 1,
      "byteOffset": 144336,
      "componentType": 5126,
      "count": 14173,
      "max": [
        0.9980469942092896,
        0.9975730180740356
      ],
      "min": [
        0.0019529999699443579,
        0.0019529999699443579
      ],
      "type": "VEC2"
    },
    {
      "bufferView": 0,
      "byteOffset": 363228,
      "componentType": 5125,
      "count": 49254,
      "type": "SCALAR"
    },
    {
      "bufferView": 2,
      "byteOffset": 773160,
      "componentType": 5126,
      "count": 592,
      "max": [
        -2.562731981277466,
        3.7944769859313965,
        -2.383970022201538
      ],
      "min": [
        -3.2102580070495605,
        3.147128105163574,
        -2.3900070190429688
      ],
      "type": "VEC3"
    },
    {
      "bufferView": 2,
      "byteOffset": 780264,
      "componentType": 5126,
      "count": 592,
      "max": [
        0.9999662637710571,
        1.0,
        1.0
      ],
      "min": [
        -0.9995765089988708,
        -1.0,
        -1.0
      ],
      "type": "VEC3"
    },
    {
      "bufferView": 1,
      "byteOffset": 257720,
      "componentType": 5126,
      "count": 592,
      "max": [
        0.9980469942092896,
        0.47690901160240173
      ],
      "min": [
        0.0019529999699443579,
        0.0019529999699443579
      ],
      "type": "VEC2"
    },
    {
      "bufferView": 0,
      "byteOffset": 560244,
      "componentType": 5125,
      "count": 2880,
      "type": "SCALAR"
    },
    {
      "bufferView": 2,
      "byteOffset": 787368,
      "componentType": 5126,
      "count": 299,
      "max": [
        -2.707139015197754,
        3.5523340702056885,
        -2.330203056335449
      ],
      "min": [
        -2.8001821041107178,
        3.3920230865478516,
        -2.3849780559539795
      ],
      "type": "VEC3"
    },
    {
      "bufferView": 2,
      "byteOffset": 790956,
      "componentType": 5126,
      "count": 299,
      "max": [
        0.9993025064468384,
        0.9973226189613342,
        0.9996088147163391
      ],
      "min": [
        -0.9973601698875427,
        -0.9983939528465271,
        -0.9997571706771851
      ],
      "type": "VEC3"
    },
    {
      "bufferView": 1,
      "byteOffset": 262456,
      "componentType": 5126,
      "count": 299,
      "max": [
        0.9980469942092896,
        0.9351919889450073
      ],
      "min": [
        0.0019529999699443579,
        0.0019529999699443579
      ],
      "type": "VEC2"
    },
    {
      "bufferView": 0,
      "byteOffset": 571764,
      "componentType": 5125,
      "count": 1530,
      "type": "SCALAR"
    },
    {
      "bufferView": 2,
      "byteOffset": 794544,
      "componentType": 5126,
      "count": 4129,
      "max": [
        -1.380316972732544,
        3.8163421154022217,
        -2.1317269802093506
      ],
      "min": [
        -2.766191005706787,
        2.8524019718170166,
        -2.3899788856506348
      ],
      "type": "VEC3"
    },
    {
      "bufferView": 2,
      "byteOffset": 844092,
      "componentType": 5126,
      "count": 4129,
      "max": [
        0.9995669722557068,
        0.9999558925628662,
        0.9997574687004089
      ],
      "min": [
        -0.9998879432678223,
        -0.999254584312439,
        -0.9999337792396545
      ],
      "type": "VEC3"
    },
    {
      "bufferView": 1,
      "byteOffset": 264848,
      "componentType": 5126,
      "count": 4129,
      "max": [
        0.9980469942092896,
        0.38309499621391296
      ],
      "min": [
        0.0019529999699443579,
        0.0019529999699443579
      ],
      "type": "VEC2"
    },
    {
      "bufferView": 0,
      "byteOffset": 577884,
      "componentType": 5125,
      "count": 12156,
      "type": "SCALAR"
    },
    {
      "bufferView": 2,
      "byteOffset": 893640,
      "componentType": 5126,
      "count": 2001,
      "max": [
        -1.1563620567321777,
        3.606184959411621,
        -1.8587690591812134
      ],
      "min": [
        -1.4457379579544067,
        3.2487270832061768,
        -2.1924359798431396
      ],
      "type": "VEC3"
    },
    {
      "bufferView": 2,
      "byteOffset": 917652,
      "componentType": 5126,
      "count": 2001,
      "max": [
        0.9997217655181885,
        0.9981536269187927,
        0.9981343746185303
      ],
      "min": [
        -0.9980018734931946,
        -0.999304473400116,
        -0.9998131990432739
      ],
      "type": "VEC3"
    },
    {
      "bufferView": 1,
      "byteOffset": 297880,
      "componentType": 5126,
      "count": 2001,
      "max": [
        0.992281973361969,
        0.9980469942092896
      ],
      "min": [
        0.0019529999699443579,
        0.0019529999699443579
      ],
      "type": "VEC2"
    },
    {
      "bufferView": 0,
      "byteOffset": 626508,
      "componentType": 5125,
      "count": 9414,
      "type": "SCALAR"
    },
    {
      "bufferView": 2,
      "byteOffset": 941664,
      "componentType": 5126,
      "count": 850,
      "max": [
        -1.0343739986419678,
        3.8550429344177246,
        -1.9611150026321411
      ],
      "min": [
        -1.361549973487854,
        3.6947081089019775,
        -2.3949639797210693
      ],
      "type": "VEC3"
    },
    {
      "bufferView": 2,
      "byteOffset": 951864,
      "componentType": 5126,
      "count": 850,
      "max": [
        0.9934938549995422,
        0.997140109539032,
        0.9986566305160522
      ],
      "min": [
        -0.9961307644844055,
        -0.9981879591941833,
        -0.9996016621589661
      ],
      "type": "VEC3"
    },
    {
      "bufferView": 1,
      "byteOffset": 313888,
      "componentType": 5126,
      "count": 850,
      "max": [
        0.9677119851112366,
        0.9980469942092896
      ],
      "min": [
        0.0019529999699443579,
        0.0019529999699443579
      ],
      "type": "VEC2"
    },
    {
      "bufferView": 0,
      "byteOffset": 664164,
      "componentType": 5125,
      "count": 4152,
      "type": "SCALAR"
    }
  ],
  "asset": {
    "extras": {
      "author": "DeadLink (https://sketchfab.com/hell3879)",
      "license": "CC-BY-4.0 (http://creativecommons.org/licenses/by/4.0/)",
      "source": "https://sketchfab.com/3d-models/my-computer-9d1da5ba105145f7910ff50774c1152f",
      "title": "My computer"
    },
    "generator": "Sketchfab-13.31.0",
    "version": "2.0"
  },
  "bufferViews": [
    {
      "buffer": 0,
      "byteLength": 680772,
      "name": "floatBufferViews",
      "target": 34963
    },
    {
      "buffer": 0,
      "byteLength": 320688,
      "byteOffset": 680772,
      "byteStride": 8,
      "name": "floatBufferViews",
      "target": 34962
    },
    {
      "buffer": 0,
      "byteLength": 962064,
      "byteOffset": 1001460,
      "byteStride": 12,
      "name": "floatBufferViews",
      "target": 34962
    }
  ],
  "buffers": [
    {
      "byteLength": 1963524,
      "uri": "scene.bin"
    }
  ],
  "images": [
    {
      "uri": "textures/mat0_baseColor.png"
    },
    {
      "uri": "textures/mat1_baseColor.png"
    },
    {
      "uri": "textures/mat10_baseColor.png"
    },
    {
      "uri": "textures/mat10_metallicRoughness.png"
    },
    {
      "uri": "textures/mat11_baseColor.png"
    },
    {
      "uri": "textures/mat2_baseColor.png"
    },
    {
      "uri": "textures/mat2_metallicRoughness.png"
    },
    {
      "uri": "textures/mat3_baseColor.png"
    },
    {
      "uri": "textures/mat4_baseColor.png"
    },
    {
      "uri": "textures/mat5_baseColor.png"
    },
    {
      "uri": "textures/mat6_baseColor.png"
    },
    {
      "uri": "textures/mat7_baseColor.png"
    },
    {
      "uri": "textures/mat8_baseColor.png"
    },
    {
      "uri": "textures/mat9_baseColor.png"
    }
  ],
  "materials": [
    {
      "doubleSided": true,
      "name": "mat0",
      "pbrMetallicRoughness": {
        "baseColorTexture": {
          "index": 0
        },
        "metallicFactor": 0.0,
        "roughnessFactor": 0.12380685350660126
      }
    },
    {
      "doubleSided": true,
      "name": "mat1",
      "pbrMetallicRoughness": {
        "baseColorFactor": [
          0.23009593934000558,
          0.23009593934000558,
          0.23009593934000558,
          1.0
        ],
        "baseColorTexture": {
          "index": 1
        },
        "metallicFactor": 0.0
      }
    },
    {
      "doubleSided": true,
      "name": "mat10",
      "pbrMetallicRoughness": {
        "baseColorTexture": {
          "index": 2
        },
        "metallicFactor": 0.8335263497945898,
        "metallicRoughnessTexture": {
          "index": 3
        },
        "roughnessFactor": 0.683772233983162
      }
    },
    {
      "doubleSided": true,
      "name": "mat11",
      "pbrMetallicRoughness": {
        "baseColorTexture": {
          "index": 4
        },
        "metallicFactor": 0.0,
        "roughnessFactor": 0.13599736684911812
      }
    },
    {
      "doubleSided": true,
      "name": "mat2",
      "pbrMetallicRoughness": {
        "baseColorTexture": {
          "index": 5
        },
        "metallicFactor": 0.7238117297119381,
        "metallicRoughnessTexture": {
          "index": 6
        },
        "roughnessFactor": 0.32495032365812926
      }
    },
    {
      "doubleSided": true,
      "name": "mat3",
      "pbrMetallicRoughness": {
        "baseColorTexture": {
          "index": 7
        },
        "metallicFactor": 0.0,
        "roughnessFactor": 0.1908546768904439
      }
    },
    {
      "doubleSided": true,
      "name": "mat4",
      "pbrMetallicRoughness": {
        "baseColorTexture": {
          "index": 8
        },
        "metallicFactor": 0.0,
        "roughnessFactor": 0.12380685350660126
      }
    },
    {
      "doubleSided": true,
      "name": "mat5",
      "pbrMetallicRoughness": {
        "baseColorTexture": {
          "index": 9
        },
        "metallicFactor": 0.0,
        "roughnessFactor": 0.683772233983162
      }
    },
    {
      "doubleSided": true,
      "name": "mat6",
      "pbrMetallicRoughness": {
        "baseColorTexture": {
          "index": 10
        },
        "metallicFactor": 0.0,
        "roughnessFactor": 0.683772233983162
      }
    },
    {
      "doubleSided": true,
      "name": "mat7",
      "pbrMetallicRoughness": {
        "baseColorTexture": {
          "index": 11
        },
        "metallicFactor": 0.0,
        "roughnessFactor": 0.683772233983162
      }
    },
    {
      "doubleSided": true,
      "name": "mat8",
      "pbrMetallicRoughness": {
        "baseColorTexture": {
          "index": 12
        },
        "metallicFactor": 0.0,
        "roughnessFactor": 0.683772233983162
      }
    },
    {
      "doubleSided": true,
      "name": "mat9",
      "pbrMetallicRoughness": {
        "baseColorFactor": [
          0.3946678694639831,
          0.3946678694639831,
          0.3946678694639831,
          1.0
        ],
        "baseColorTexture": {
          "index": 13
        },
        "metallicFactor": 0.8335263497945898,
        "roughnessFactor": 0.683772233983162
      }
    }
  ],
  "meshes": [
    {
      "name": "Object_0",
      "primitives": [
        {
          "attributes": {
            "NORMAL": 1,
            "POSITION": 0,
            "TEXCOORD_0": 2
          },
          "indices": 3,
          "material": 0,
          "mode": 4
        }
      ]
    },
    {
      "name": "Object_1",
      "primitives": [
        {
          "attributes": {
            "NORMAL": 5,
            "POSITION": 4,
            "TEXCOORD_0": 6
          },
          "indices": 7,
          "material": 1,
          "mode": 4
        }
      ]
    },
    {
      "name": "Object_2",
      "primitives": [
        {
          "attributes": {
            "NORMAL": 9,
            "POSITION": 8,
            "TEXCOORD_0": 10
          },
          "indices": 11,
          "material": 2,
          "mode": 4
        }
      ]
    },
    {
      "name": "Object_3",
      "primitives": [
        {
          "attributes": {
            "NORMAL": 13,
            "POSITION": 12,
            "TEXCOORD_0": 14
          },
          "indices": 15,
          "material": 3,
          "mode": 4
        }
      ]
    },
    {
      "name": "Object_4",
      "primitives": [
        {
          "attributes": {
            "NORMAL": 17,
            "POSITION": 16,
            "TEXCOORD_0": 18
          },
          "indices": 19,
          "material": 4,
          "mode": 4
        }
      ]
    },
    {
      "name": "Object_5",
      "primitives": [
        {
          "attributes": {
            "NORMAL": 21,
            "POSITION": 20,
            "TEXCOORD_0": 22
          },
          "indices": 23,
          "material": 5,
          "mode": 4
        }
      ]
    },
    {
      "name": "Object_6",
      "primitives": [
        {
          "attributes": {
            "NORMAL": 25,
            "POSITION": 24,
            "TEXCOORD_0": 26
          },
          "indices": 27,
          "material": 6,
          "mode": 4
        }
      ]
    },
    {
      "name": "Object_7",
      "primitives": [
        {
          "attributes": {
            "NORMAL": 29,
            "POSITION": 28,
            "TEXCOORD_0": 30
          },
          "indices": 31,
          "material": 7,
          "mode": 4
        }
      ]
    },
    {
      "name": "Object_8",
      "primitives": [
        {
          "attributes": {
            "NORMAL": 33,
            "POSITION": 32,
            "TEXCOORD_0": 34
          },
          "indices": 35,
          "material": 8,
          "mode": 4
        }
      ]
    },
    {
      "name": "Object_9",
      "primitives": [
        {
          "attributes": {
            "NORMAL": 37,
            "POSITION": 36,
            "TEXCOORD_0": 38
          },
          "indices": 39,
          "material": 9,
          "mode": 4
        }
      ]
    },
    {
      "name": "Object_10",
      "primitives": [
        {
          "attributes": {
            "NORMAL": 41,
            "POSITION": 40,
            "TEXCOORD_0": 42
          },
          "indices": 43,
          "material": 10,
          "mode": 4
        }
      ]
    },
    {
      "name": "Object_11",
      "primitives": [
        {
          "attributes": {
            "NORMAL": 45,
            "POSITION": 44,
            "TEXCOORD_0": 46
          },
          "indices": 47,
          "material": 11,
          "mode": 4
        }
      ]
    }
  ],
  "nodes": [
    {
      "children": [
        1
      ],
      "matrix": [
        1.0,
        0.0,
        0.0,
        0.0,
        0.0,
        2.220446049250313e-16,
        -1.0,
        0.0,
        0.0,
        1.0,
        2.220446049250313e-16,
        0.0,
        0.0,
        0.0,
        0.0,
        1.0
      ],
      "name": "Sketchfab_model"
    },
    {
      "children": [
        2,
        3,
        4,
        5,
        6,
        7,
        8,
        9,
        10,
        11,
        12,
        13
      ],
      "name": "pc.obj.cleaner.materialmerger.gles"
    },
    {
      "mesh": 0,
      "name": "Object_2"
    },
    {
      "mesh": 1,
      "name": "Object_3"
    },
    {
      "mesh": 2,
      "name": "Object_4"
    },
    {
      "mesh": 3,
      "name": "Object_5"
    },
    {
      "mesh": 4,
      "name": "Object_6"
    },
    {
      "mesh": 5,
      "name": "Object_7"
    },
    {
      "mesh": 6,
      "name": "Object_8"
    },
    {
      "mesh": 7,
      "name": "Object_9"
    },
    {
      "mesh": 8,
      "name": "Object_10"
    },
    {
      "mesh": 9,
      "name": "Object_11"
    },
    {
      "mesh": 10,
      "name": "Object_12"
    },
    {
      "mesh": 11,
      "name": "Object_13"
    }
  ],
  "samplers": [
    {
      "magFilter": 9729,
      "minFilter": 9987,
      "wrapS": 10497,
      "wrapT": 10497
    }
  ],
  "scene": 0,
  "scenes": [
    {
      "name": "Sketchfab_Scene",
      "nodes": [
        0
      ]
    }
  ],
  "textures": [
    {
      "sampler": 0,
      "source": 0
    },
    {
      "sampler": 0,
      "source": 1
    },
    {
      "sampler": 0,
      "source": 2
    },
    {
      "sampler": 0,
      "source": 3
    },
    {
      "sampler": 0,
      "source": 4
    },
    {
      "sampler": 0,
      "source": 5
    },
    {
      "sampler": 0,
      "source": 6
    },
    {
      "sampler": 0,
      "source": 7
    },
    {
      "sampler": 0,
      "source": 8
    },
    {
      "sampler": 0,
      "source": 9
    },
    {
      "sampler": 0,
      "source": 10
    },
    {
      "sampler": 0,
      "source": 11
    },
    {
      "sampler": 0,
      "source": 12
    },
    {
      "sampler": 0,
      "source": 13
    }
  ]
}
